<svg width="75" height="39" viewBox="0 0 75 39" fill="none" xmlns="http://www.w3.org/2000/svg">
<path d="M19.5 39H55.5C66.2696 39 75 30.2696 75 19.5C75 8.73045 66.2696 0 55.5 0H19.5C8.73045 0 0 8.73045 0 19.5C0 30.2696 8.73045 39 19.5 39Z" fill="#E4E5E9"/>
<g filter="url(#filter0_d_434_34)">
<path d="M19.5 9C13.701 9 9 13.701 9 19.5C9 25.299 13.701 30 19.5 30C25.299 30 30 25.299 30 19.5C30 13.701 25.299 9 19.5 9Z" fill="black"/>
</g>
<path d="M19.5 9C13.701 9 9 13.701 9 19.5C9 25.299 13.701 30 19.5 30C25.299 30 30 25.299 30 19.5C30 13.701 25.299 9 19.5 9Z" fill="#FF0000"/>
<defs>
<filter id="filter0_d_434_34" x="1" y="4" width="37" height="37" filterUnits="userSpaceOnUse" color-interpolation-filters="sRGB">
<feFlood flood-opacity="0" result="BackgroundImageFix"/>
<feColorMatrix in="SourceAlpha" type="matrix" values="0 0 0 0 0 0 0 0 0 0 0 0 0 0 0 0 0 0 127 0" result="hardAlpha"/>
<feOffset dy="3"/>
<feGaussianBlur stdDeviation="4"/>
<feColorMatrix type="matrix" values="0 0 0 0 0.881029 0 0 0 0 0 0 0 0 0 0 0 0 0 0.603748 0"/>
<feBlend mode="normal" in2="BackgroundImageFix" result="effect1_dropShadow_434_34"/>
<feBlend mode="normal" in="SourceGraphic" in2="effect1_dropShadow_434_34" result="shape"/>
</filter>
</defs>
</svg>
